<?xml version="1.0" standalone="no"?>
<!DOCTYPE svg PUBLIC "-//W3C//DTD SVG 20010904//EN"
 "http://www.w3.org/TR/2001/REC-SVG-20010904/DTD/svg10.dtd">
<svg version="1.0" xmlns="http://www.w3.org/2000/svg"
 width="1280.000000pt" height="640.000000pt" viewBox="0 0 1280.000000 640.000000"
 preserveAspectRatio="xMidYMid meet">
<metadata>
Created by potrace 1.15, written by Peter Selinger 2001-2017
</metadata>
<g transform="translate(0.000000,640.000000) scale(0.100000,-0.100000)"
fill="#000000" stroke="none">
<path d="M1196 5269 c-260 -64 -414 -251 -447 -544 -12 -109 0 -264 27 -357
44 -147 161 -298 282 -361 86 -46 144 -59 402 -92 158 -21 230 -26 315 -22
206 10 338 79 436 230 l37 57 21 -34 c27 -44 96 -106 152 -138 62 -36 122 -53
299 -84 128 -23 184 -28 320 -28 151 0 172 2 242 26 147 49 249 153 302 306
l12 34 32 -65 c41 -82 106 -155 169 -190 64 -34 272 -93 382 -108 49 -7 133
-9 197 -6 231 12 377 94 457 257 29 60 32 73 32 165 0 94 -2 105 -33 168 -27
55 -48 80 -109 130 -41 34 -99 78 -129 98 -50 33 -53 37 -32 43 13 3 50 6 84
6 34 0 89 3 123 6 59 7 61 8 61 36 0 34 -34 139 -57 177 -10 14 -55 68 -101
118 -68 76 -97 99 -155 128 -40 19 -103 42 -142 50 -91 19 -309 19 -399 0
-153 -32 -262 -109 -319 -224 -29 -59 -32 -74 -32 -156 0 -78 4 -97 28 -146
41 -84 113 -145 256 -218 129 -66 249 -111 348 -131 71 -15 83 -24 83 -64 0
-58 -57 -106 -128 -106 -33 0 -47 20 -65 95 -12 49 -14 51 -85 85 l-73 35
-107 -7 c-59 -3 -144 -9 -189 -12 l-83 -6 0 365 0 364 -90 61 -89 60 -220 0
-220 0 -3 -444 c-3 -433 -4 -445 -24 -473 -11 -15 -36 -38 -54 -51 -31 -20
-35 -21 -49 -7 -17 17 -28 242 -30 655 l-1 205 -113 58 -112 57 -222 0 -223 0
0 -137 0 -137 -42 40 c-24 22 -55 48 -69 56 -55 35 -394 170 -457 183 -98 21
-298 18 -396 -6z m3114 -391 c0 -12 10 -33 23 -46 20 -23 21 -25 2 -18 -11 4
-51 14 -88 23 -41 9 -66 20 -64 27 6 18 49 36 90 36 31 0 37 -3 37 -22z
m-2537 -157 l144 -44 122 27 c68 15 124 26 126 24 7 -6 10 -348 4 -348 -4 0
-51 14 -105 30 -122 38 -390 110 -409 110 -7 0 -22 -28 -34 -67 -20 -66 -63
-143 -80 -143 -20 0 -36 101 -36 230 0 150 15 203 72 256 l28 26 12 -29 c10
-27 23 -33 156 -72z"/>
<path d="M6635 5274 c-227 -47 -400 -213 -462 -444 -27 -99 -24 -355 5 -473
77 -310 291 -467 637 -467 122 0 227 23 324 71 67 33 102 59 175 133 155 155
204 299 193 571 -4 106 -10 145 -33 214 -72 216 -222 347 -456 395 -96 20
-287 20 -383 0z m277 -455 c86 -44 124 -148 115 -319 -7 -133 -18 -164 -71
-195 -118 -68 -271 -27 -329 90 -35 71 -49 236 -26 306 42 126 186 180 311
118z"/>
<path d="M4830 5087 l0 -183 48 -47 48 -47 152 0 152 0 0 -429 0 -429 36 -21
c33 -20 50 -21 245 -21 l209 0 0 450 0 450 186 0 186 0 -4 213 c-3 116 -8 220
-12 230 -8 16 -47 17 -627 17 l-619 0 0 -183z"/>
<path d="M7630 5208 l-40 -61 0 -619 0 -618 174 0 c154 0 179 2 225 21 l51 22
1 151 1 151 37 -145 c21 -80 41 -157 44 -172 l7 -28 154 0 c126 0 166 4 220
20 61 19 66 23 75 58 6 20 19 71 30 112 l19 75 1 -132 1 -133 178 0 c141 0
192 4 250 19 41 11 75 21 77 23 1 2 6 299 10 661 l7 657 -283 0 -284 -1 -66
-62 -67 -62 -42 -170 c-23 -93 -46 -176 -49 -182 -4 -7 -31 83 -61 200 -29
116 -57 227 -62 245 l-9 32 -280 0 -279 0 -40 -62z"/>
<path d="M9258 5212 l-88 -57 -2 -592 c-1 -326 -2 -605 -2 -620 l-1 -28 524
-3 c406 -2 541 1 602 11 66 12 79 12 79 1 0 -23 391 -19 555 6 72 11 133 20
138 20 4 0 7 19 8 43 l0 42 32 -62 31 -63 236 0 c172 0 278 5 394 20 87 11
161 21 163 24 2 2 -46 103 -107 225 -97 193 -119 229 -175 288 -35 37 -63 68
-62 69 1 1 20 11 42 22 142 72 218 229 193 402 -15 114 -75 203 -167 254 -90
48 -164 55 -613 56 l-406 0 -87 -40 c-48 -22 -89 -40 -91 -40 -2 0 -4 18 -4
40 l0 40 -552 0 -553 0 -87 -58z m1122 -352 l0 -60 -295 0 -295 0 0 25 0 25
208 0 207 0 80 34 c44 19 83 35 88 35 4 1 7 -26 7 -59z m697 -92 c-3 -7 -5 -2
-5 12 0 14 2 19 5 13 2 -7 2 -19 0 -25z m-707 -383 l0 -95 -290 0 -290 0 0 65
0 65 193 0 c184 0 196 1 282 29 50 16 93 30 98 30 4 1 7 -42 7 -94z"/>
<path d="M2725 2400 c-105 -12 -398 -86 -452 -114 -77 -39 -139 -100 -175
-174 -30 -60 -33 -75 -33 -157 0 -78 4 -97 28 -146 34 -70 104 -137 188 -180
l64 -33 -45 -6 c-41 -6 -264 -92 -283 -109 -14 -14 22 -154 58 -227 88 -179
248 -254 540 -254 140 0 253 18 328 53 139 64 397 257 397 297 0 5 5 10 10 10
6 0 10 -63 10 -170 l0 -170 558 1 557 0 58 69 58 69 -3 153 -3 153 -317 3
-318 2 0 40 0 40 226 0 226 0 59 51 59 52 0 143 0 144 -285 0 -285 0 0 35 0
35 251 0 250 0 60 41 60 40 -3 147 -3 147 -508 3 -508 2 -100 -31 -99 -31 0
-111 0 -112 -24 56 c-65 159 -193 230 -436 243 -52 2 -126 1 -165 -4z m625
-520 l0 -121 -49 49 c-28 28 -77 63 -110 80 -59 30 -67 42 -27 42 12 0 55 16
96 34 41 19 78 35 83 35 4 1 7 -53 7 -119z m-597 -418 c29 -25 19 -35 -13 -12
-16 12 -30 26 -30 31 0 11 16 4 43 -19z"/>
<path d="M8442 2399 c-305 -39 -482 -225 -512 -534 -21 -226 24 -395 147 -548
203 -253 300 -305 578 -314 162 -5 248 7 337 46 92 42 199 140 236 219 9 17
18 32 21 32 3 0 5 -33 3 -72 l-2 -73 92 -67 92 -68 558 0 558 0 0 168 -1 167
-125 58 -125 57 -210 0 -209 0 0 40 0 40 303 2 302 3 3 151 3 151 -118 42
-118 41 -187 0 -188 0 0 35 0 35 328 2 327 3 3 156 2 157 -112 28 -113 29
-527 3 -528 3 -2 -183 -3 -183 -24 47 c-33 64 -109 148 -170 188 -80 51 -304
128 -407 140 -99 11 -122 11 -212 -1z m294 -437 c16 -44 24 -52 92 -91 l75
-43 163 36 c90 20 171 36 179 36 13 0 15 -27 15 -189 0 -105 -4 -192 -8 -195
-5 -3 -33 10 -63 29 -35 22 -118 53 -238 89 -100 31 -184 56 -186 56 -1 0 -6
-15 -9 -32 -10 -52 -51 -133 -82 -161 -32 -30 -117 -52 -158 -41 -32 8 -44 45
-52 164 -7 99 8 215 35 268 38 73 112 121 188 122 30 0 34 -4 49 -48z"/>
<path d="M4688 2359 l-58 -29 0 -655 0 -655 225 0 224 0 41 73 41 72 -5 173
c-4 110 -2 172 4 172 15 0 62 -78 181 -298 l104 -192 250 2 249 3 13 64 13 64
-105 202 c-58 111 -122 224 -143 250 l-39 48 40 40 c44 44 99 155 123 249 33
126 -10 277 -98 353 -94 80 -205 95 -677 95 l-326 -1 -57 -30z m663 -368 c16
-16 29 -38 29 -49 0 -26 -31 -33 -142 -34 l-83 -1 -3 57 -3 56 86 0 c82 0 88
-1 116 -29z"/>
<path d="M5884 2358 c-15 -33 -14 -36 116 -378 72 -190 184 -483 247 -652
l117 -308 228 0 228 0 13 33 c13 29 137 363 383 1022 l93 250 -23 30 -24 30
-214 3 -214 2 -124 -416 c-68 -229 -126 -410 -129 -403 -3 8 -59 194 -125 414
l-121 400 -218 3 -217 2 -16 -32z"/>
<path d="M7338 1774 l-6 -616 31 -69 30 -69 217 0 217 0 6 332 c4 182 7 476 7
654 l0 322 -48 31 -49 31 -200 0 -200 0 -5 -616z"/>
</g>
</svg>
